<svg xmlns="http://www.w3.org/2000/svg" xmlns:xlink="http://www.w3.org/1999/xlink" width="32" height="32" viewBox="0 0 32 32">
  <defs>
    <clipPath id="clip-path">
      <rect id="Rectangle_50" data-name="Rectangle 50" width="32" height="32" transform="translate(216 177)" fill="#00dd80" stroke="#707070" stroke-width="1"/>
    </clipPath>
  </defs>
  <g id="Mask_Group_2" data-name="Mask Group 2" transform="translate(-216 -177)" clip-path="url(#clip-path)">
    <g id="_2" data-name="2" transform="translate(216 177)">
      <g id="Group_75" data-name="Group 75">
        <path id="Path_84" data-name="Path 84" d="M31.816,11.684a.823.823,0,0,0-.635-.3H28.067C27.3,9.354,26.3,7.368,25.159,6.619c-3.937-2.59-14.38-2.59-18.316,0C5.7,7.369,4.706,9.358,3.934,11.382H.819a.82.82,0,0,0-.8.986L.478,14.6a.819.819,0,0,0,.8.653H2.2A5.533,5.533,0,0,0,.875,18.871a5.416,5.416,0,0,0,1.712,4.067c.012.011.025.018.036.029v3.127a1.23,1.23,0,0,0,1.229,1.229H6.724a1.23,1.23,0,0,0,1.229-1.229V24.838H24.046v1.257a1.23,1.23,0,0,0,1.229,1.229h2.873a1.231,1.231,0,0,0,1.229-1.229V23.029a5.621,5.621,0,0,0,.359-7.775h.984a.816.816,0,0,0,.8-.654l.462-2.234A.826.826,0,0,0,31.816,11.684ZM8.192,8.671c3.138-2.066,12.478-2.066,15.614,0,.61.4,1.394,2.016,2.112,4H6.081C6.8,10.688,7.582,9.073,8.192,8.671ZM4.516,19.179A2.418,2.418,0,1,1,6.934,21.6,2.417,2.417,0,0,1,4.516,19.179ZM25.1,21.6a2.417,2.417,0,1,1,2.418-2.418A2.418,2.418,0,0,1,25.1,21.6Z" fill="#00dd80"/>
      </g>
    </g>
  </g>
</svg>
