<svg xmlns="http://www.w3.org/2000/svg" xmlns:xlink="http://www.w3.org/1999/xlink" width="32" height="32" viewBox="0 0 32 32">
  <defs>
    <clipPath id="clip-path">
      <rect id="Rectangle_50" data-name="Rectangle 50" width="32" height="32" transform="translate(384 177)" fill="#00dd80" stroke="#707070" stroke-width="1"/>
    </clipPath>
  </defs>
  <g id="Mask_Group_3" data-name="Mask Group 3" transform="translate(-384 -177)" clip-path="url(#clip-path)">
    <g id="_3" data-name="3" transform="translate(384 177)">
      <path id="Path_85" data-name="Path 85" d="M0,20.75V32H5.625V20.75H3.75v-.173a2.808,2.808,0,0,0,1.875-2.64c0-1.2-1.427-3.394-2.041-4.283l-.772-1.117-.772,1.117C1.427,14.544,0,16.739,0,17.938a2.808,2.808,0,0,0,1.875,2.64v.173Z" fill="#00dd80"/>
      <path id="Path_86" data-name="Path 86" d="M22.225,2.15,20.076,0H9.375V1.875h3.75V3.75H11.25V6.206a8.338,8.338,0,0,1,2.813-.518,8.338,8.338,0,0,1,2.813.518V3.75H15V1.875h4.3l1.6,1.6Z" fill="#00dd80"/>
      <path id="Path_87" data-name="Path 87" d="M30.594,29.188H14.531a1.406,1.406,0,0,0,0,2.813H30.594a1.406,1.406,0,0,0,0-2.812Z" fill="#00dd80"/>
      <path id="Path_88" data-name="Path 88" d="M30.594,24.5H14.531a1.406,1.406,0,0,0,0,2.813H30.594a1.406,1.406,0,0,0,0-2.812Z" fill="#00dd80"/>
      <path id="Path_89" data-name="Path 89" d="M28.25,15.125a3.734,3.734,0,0,0-3.618,2.813H28.25v1.875H14.531a1.406,1.406,0,0,0,0,2.813H28.25a3.75,3.75,0,0,0,0-7.5Z" fill="#00dd80"/>
      <path id="Path_90" data-name="Path 90" d="M14.531,17.938h6.094v-3.75a6.563,6.563,0,1,0-13.125,0V32h4.079a3.23,3.23,0,0,1,.663-3.75,3.264,3.264,0,0,1,0-4.687,3.276,3.276,0,0,1,2.289-5.625Z" fill="#00dd80"/>
    </g>
  </g>
</svg>
