<svg xmlns="http://www.w3.org/2000/svg" xmlns:xlink="http://www.w3.org/1999/xlink" width="32" height="32" viewBox="0 0 32 32">
  <defs>
    <clipPath id="clip-path">
      <rect id="Rectangle_50" data-name="Rectangle 50" width="32" height="32" transform="translate(552 177)" fill="#00dd80" stroke="#707070" stroke-width="1"/>
    </clipPath>
  </defs>
  <g id="Mask_Group_4" data-name="Mask Group 4" transform="translate(-552 -177)" clip-path="url(#clip-path)">
    <g id="_4" data-name="4" transform="translate(552 177)">
      <g id="Group_76" data-name="Group 76">
        <path id="Path_91" data-name="Path 91" d="M21.818,0H10.182A3.638,3.638,0,0,0,6.545,3.636V28.364A3.638,3.638,0,0,0,10.182,32H21.818a3.638,3.638,0,0,0,3.636-3.636V3.636A3.638,3.638,0,0,0,21.818,0ZM16,30.545a2.182,2.182,0,1,1,2.182-2.182A2.179,2.179,0,0,1,16,30.545Zm6.545-5.818H9.455V4.364H22.545Z" fill="#00dd80"/>
      </g>
    </g>
  </g>
</svg>
