<svg xmlns="http://www.w3.org/2000/svg" xmlns:xlink="http://www.w3.org/1999/xlink" width="32" height="32" viewBox="0 0 32 32">
  <defs>
    <clipPath id="clip-path">
      <rect id="Rectangle_50" data-name="Rectangle 50" width="32" height="32" transform="translate(888 177)" fill="#00dd80" stroke="#707070" stroke-width="1"/>
    </clipPath>
  </defs>
  <g id="Mask_Group_6" data-name="Mask Group 6" transform="translate(-888 -177)" clip-path="url(#clip-path)">
    <g id="_6" data-name="6" transform="translate(888 177)">
      <g id="Group_78" data-name="Group 78">
        <g id="Group_77" data-name="Group 77">
          <rect id="Rectangle_55" data-name="Rectangle 55" width="12.8" height="12.8" transform="translate(9.6 9.6)" fill="#00dd80"/>
        </g>
      </g>
      <g id="Group_80" data-name="Group 80">
        <g id="Group_79" data-name="Group 79">
          <path id="Path_93" data-name="Path 93" d="M30.4,17.6A1.512,1.512,0,0,0,32,16a1.6,1.6,0,0,0-1.6-1.6H28.8V11.2h1.6A1.512,1.512,0,0,0,32,9.6,1.6,1.6,0,0,0,30.4,8H28.8V6.4a3.209,3.209,0,0,0-3.2-3.2H24V1.6a1.6,1.6,0,1,0-3.2,0V3.2H17.6V1.6A1.6,1.6,0,0,0,16,0a1.512,1.512,0,0,0-1.6,1.6V3.2H11.2V1.6A1.6,1.6,0,0,0,9.6,0,1.512,1.512,0,0,0,8,1.6V3.2H6.4A3.209,3.209,0,0,0,3.2,6.4V8H1.6A1.512,1.512,0,0,0,0,9.6a1.6,1.6,0,0,0,1.6,1.6H3.2v3.2H1.6A1.512,1.512,0,0,0,0,16a1.6,1.6,0,0,0,1.6,1.6H3.2v3.2H1.6A1.512,1.512,0,0,0,0,22.4,1.6,1.6,0,0,0,1.6,24H3.2v1.6a3.209,3.209,0,0,0,3.2,3.2H8v1.6A1.6,1.6,0,0,0,9.6,32a1.512,1.512,0,0,0,1.6-1.6V28.8h3.2v1.6A1.6,1.6,0,0,0,16,32a1.512,1.512,0,0,0,1.6-1.6V28.8h3.2v1.6a1.6,1.6,0,1,0,3.2,0V28.8h1.6a3.209,3.209,0,0,0,3.2-3.2V24h1.6A1.512,1.512,0,0,0,32,22.4a1.6,1.6,0,0,0-1.6-1.6H28.8V17.6h1.6Zm-4.8,8H6.4V6.4H25.6Z" fill="#00dd80"/>
        </g>
      </g>
    </g>
  </g>
</svg>
