<svg xmlns="http://www.w3.org/2000/svg" xmlns:xlink="http://www.w3.org/1999/xlink" width="32" height="32" viewBox="0 0 32 32">
  <defs>
    <clipPath id="clip-path">
      <rect id="Rectangle_50" data-name="Rectangle 50" width="32" height="32" transform="translate(1056 177)" fill="#00dd80" stroke="#707070" stroke-width="1"/>
    </clipPath>
  </defs>
  <g id="Mask_Group_7" data-name="Mask Group 7" transform="translate(-1056 -177)" clip-path="url(#clip-path)">
    <g id="_7" data-name="7" transform="translate(1056 177)">
      <path id="Path_94" data-name="Path 94" d="M10.362,11.3H7.535a.938.938,0,0,0-.937.937v2.827h4.7V12.235a.938.938,0,0,0-.937-.937Z" fill="#00dd80"/>
      <path id="Path_95" data-name="Path 95" d="M6.6,31.04a.938.938,0,0,0,.937.937h2.827a.938.938,0,0,0,.937-.937v-14.1H6.6Z" fill="#00dd80"/>
      <path id="Path_96" data-name="Path 96" d="M3.778,6.593H.937A.938.938,0,0,0,0,7.531V26.339H4.7c.022,0,.014.893.014-18.808a.937.937,0,0,0-.937-.937Z" fill="#00dd80"/>
      <path id="Path_97" data-name="Path 97" d="M0,28.213V31.04a.938.938,0,0,0,.937.937H3.778a.937.937,0,0,0,.937-.937A25,25,0,0,0,4.7,28.213Z" fill="#00dd80"/>
      <path id="Path_98" data-name="Path 98" d="M30.945,30.117h-.826V27.291a.937.937,0,0,0-.937-.937h-3.3V24.938A2.82,2.82,0,0,0,24.471,22.5l4.078-7.044a2.819,2.819,0,1,0-.554-5.3L22.709,4.863A3.289,3.289,0,0,0,17.49.97L15.366,3.095a5.652,5.652,0,0,0-6.858.87.937.937,0,0,0,0,1.325L17.823,14.6a.937.937,0,0,0,1.326,0,5.652,5.652,0,0,0,.87-6.858L21.48,6.285l5.174,5.174a2.809,2.809,0,0,0,.312,2.988L22.49,22.178a2.824,2.824,0,0,0-2.244,2.76v1.415h-3.3a.937.937,0,0,0-.937.937v2.827H14.948a.937.937,0,0,0,0,1.875h16a.937.937,0,1,0,0-1.874Z" fill="#00dd80"/>
    </g>
  </g>
</svg>
