<svg xmlns="http://www.w3.org/2000/svg" width="20.25" height="24" viewBox="0 0 20.25 24">
  <g id="surface1" transform="translate(-0.5 0)">
    <path id="Path_40" data-name="Path 40" d="M19.68,16.027a12.122,12.122,0,0,1-2.873,4.518A15.013,15.013,0,0,1,11.192,23.9a1.752,1.752,0,0,1-.232.064,1.734,1.734,0,0,1-.314.033h-.02a1.727,1.727,0,0,1-.335-.033,1.8,1.8,0,0,1-.23-.063,15.012,15.012,0,0,1-5.622-3.356,12.1,12.1,0,0,1-2.873-4.517C.4,12.852.471,9.35.524,6.536V6.493c.011-.232.018-.476.021-.746A2.533,2.533,0,0,1,2.919,3.255,9.736,9.736,0,0,0,9.576.423L9.591.409a1.513,1.513,0,0,1,2.068,0l.015.015a9.737,9.737,0,0,0,6.657,2.832A2.533,2.533,0,0,1,20.7,5.747c0,.271.011.515.021.746v.018C20.78,9.331,20.845,12.839,19.68,16.027Zm0,0" transform="translate(0 0)" fill="#ffe375"/>
    <path id="Path_41" data-name="Path 41" d="M228.068,16.031a12.109,12.109,0,0,1-2.9,4.518,15.18,15.18,0,0,1-5.668,3.358,1.734,1.734,0,0,1-.551.1V0a1.54,1.54,0,0,1,1.023.408l.016.015a9.872,9.872,0,0,0,6.718,2.832,2.544,2.544,0,0,1,2.4,2.492c0,.271.011.515.022.746v.018C229.177,9.334,229.243,12.843,228.068,16.031Zm0,0" transform="translate(-208.397 -0.003)" fill="#fc0"/>
    <path id="Path_42" data-name="Path 42" d="M102.669,134.379a5.943,5.943,0,0,1-5.867,5.981h-.021a5.982,5.982,0,0,1,0-11.963H96.8A5.943,5.943,0,0,1,102.669,134.379Zm0,0" transform="translate(-86.157 -122.379)" fill="#fff"/>
    <g id="Icon_ionic-md-information" data-name="Icon ionic-md-information" transform="translate(27.667 25.279) rotate(180)">
      <path id="Path_109" data-name="Path 109" d="M16.313,16.523h1.459v4.165H16.313Z" transform="translate(0 -3.792)" fill="#bed8dd"/>
      <path id="Path_110" data-name="Path 110" d="M16.313,9.844h1.459V11.3H16.313Z" fill="#bed8dd"/>
    </g>
    <path id="Path_43" data-name="Path 43" d="M224.909,134.379a5.989,5.989,0,0,1-5.96,5.981V128.4A5.989,5.989,0,0,1,224.909,134.379Zm0,0" transform="translate(-208.342 -122.379)" fill="#8db2c5" opacity="0.3"/>
  </g>
</svg>
