<svg xmlns="http://www.w3.org/2000/svg" width="18" height="18" viewBox="0 0 18 18">
  <g id="chrome" transform="translate(0 0)">
    <path id="Path_44" data-name="Path 44" d="M69.025,5.625h-8.34a3.375,3.375,0,0,0-2.947,5.025L53.568,3.5a8.994,8.994,0,0,1,15.457,2.13Z" transform="translate(-51.684 0)" fill="#f44336"/>
    <path id="Path_45" data-name="Path 45" d="M234.146,163.4a9.007,9.007,0,0,1-9,9,8.029,8.029,0,0,1-1.125-.075l4.05-7.237a3.383,3.383,0,0,0-1.237-4.612,3.343,3.343,0,0,0-1.68-.45h8.332A8.873,8.873,0,0,1,234.146,163.4Z" transform="translate(-216.145 -154.396)" fill="#ffc107"/>
    <path id="Path_46" data-name="Path 46" d="M11.926,106.626l-4.05,7.237H7.869A8.994,8.994,0,0,1,1.884,99.434l4.17,7.155.022.038a3.375,3.375,0,0,0,5.85,0Z" transform="translate(0 -95.938)" fill="#4caf50"/>
    <path id="Path_47" data-name="Path 47" d="M166.213,165.082a3.375,3.375,0,0,1-5.85,0l-.022-.038a3.375,3.375,0,0,1,2.947-5.025h.007a3.344,3.344,0,0,1,1.68.45A3.383,3.383,0,0,1,166.213,165.082Z" transform="translate(-154.287 -154.395)" fill="#f44336"/>
    <path id="Path_48" data-name="Path 48" d="M166.213,165.082a3.375,3.375,0,0,1-5.85,0l-.022-.038a3.375,3.375,0,0,1,2.947-5.025h.007a3.344,3.344,0,0,1,1.68.45A3.383,3.383,0,0,1,166.213,165.082Z" transform="translate(-154.287 -154.395)" fill="#2196f3"/>
    <path id="Path_49" data-name="Path 49" d="M153.016,156.855a3.723,3.723,0,0,1-1.862-.5,3.753,3.753,0,1,1,5.125-1.375h0A3.771,3.771,0,0,1,153.016,156.855Zm.019-6.75a3,3,0,1,0,2.593,4.5h0a3,3,0,0,0-2.592-4.5h0Z" transform="translate(-144.027 -144.104)" fill="#fafafa"/>
  </g>
</svg>
