<svg xmlns="http://www.w3.org/2000/svg" width="497" height="389" viewBox="0 0 497 389">
  <g id="Group_132" data-name="Group 132" transform="translate(-11483 -786)">
    <rect id="Rectangle_69" data-name="Rectangle 69" width="497" height="389" rx="16" transform="translate(11483 786)" fill="#fcfcfc"/>
    <g id="surface1" transform="translate(11494.5 794)">
      <path id="Path_40" data-name="Path 40" d="M19.68,16.027a12.122,12.122,0,0,1-2.873,4.518A15.013,15.013,0,0,1,11.192,23.9a1.752,1.752,0,0,1-.232.064,1.734,1.734,0,0,1-.314.033h-.02a1.727,1.727,0,0,1-.335-.033,1.8,1.8,0,0,1-.23-.063,15.012,15.012,0,0,1-5.622-3.356,12.1,12.1,0,0,1-2.873-4.517C.4,12.852.471,9.35.524,6.536V6.493c.011-.232.018-.476.021-.746A2.533,2.533,0,0,1,2.919,3.255,9.736,9.736,0,0,0,9.576.423L9.591.409a1.513,1.513,0,0,1,2.068,0l.015.015a9.737,9.737,0,0,0,6.657,2.832A2.533,2.533,0,0,1,20.7,5.747c0,.271.011.515.021.746v.018C20.78,9.331,20.845,12.839,19.68,16.027Zm0,0" transform="translate(0 0)" fill="#00dd80"/>
      <path id="Path_41" data-name="Path 41" d="M228.068,16.031a12.109,12.109,0,0,1-2.9,4.518,15.18,15.18,0,0,1-5.668,3.358,1.734,1.734,0,0,1-.551.1V0a1.54,1.54,0,0,1,1.023.408l.016.015a9.872,9.872,0,0,0,6.718,2.832,2.544,2.544,0,0,1,2.4,2.492c0,.271.011.515.022.746v.018C229.177,9.334,229.243,12.843,228.068,16.031Zm0,0" transform="translate(-208.397 -0.003)" fill="#00aa63"/>
      <path id="Path_42" data-name="Path 42" d="M102.669,134.379a5.943,5.943,0,0,1-5.867,5.981h-.021a5.982,5.982,0,0,1,0-11.963H96.8A5.943,5.943,0,0,1,102.669,134.379Zm0,0" transform="translate(-86.157 -122.379)" fill="#fff"/>
      <path id="Path_43" data-name="Path 43" d="M224.909,134.379a5.989,5.989,0,0,1-5.96,5.981V128.4A5.989,5.989,0,0,1,224.909,134.379Zm0,0" transform="translate(-208.342 -122.379)" fill="#e1ebf0"/>
      <path id="Icon_material-shopping-cart" data-name="Icon material-shopping-cart" d="M3.838,9.235a.779.779,0,1,0,.779.779A.778.778,0,0,0,3.838,9.235ZM1.5,3v.779h.779l1.4,2.957-.526.955a.753.753,0,0,0-.1.374.782.782,0,0,0,.779.779H8.514V8.066H4a.1.1,0,0,1-.1-.1l.012-.047.351-.635h2.9a.776.776,0,0,0,.682-.4L9.246,4.356a.381.381,0,0,0,.047-.187.391.391,0,0,0-.39-.39H3.14L2.774,3ZM7.735,9.235a.779.779,0,1,0,.779.779A.778.778,0,0,0,7.735,9.235Z" transform="translate(5.182 5.383)" fill="#00aa63"/>
      <path id="Icon_material-shopping-cart-2" data-name="Icon material-shopping-cart" d="M3.838,9.235a.779.779,0,1,0,.779.779A.778.778,0,0,0,3.838,9.235ZM1.5,3v.779h.779l1.4,2.957-.526.955a.753.753,0,0,0-.1.374.782.782,0,0,0,.779.779H8.514V8.066H4a.1.1,0,0,1-.1-.1l.012-.047.351-.635h2.9a.776.776,0,0,0,.682-.4L9.246,4.356a.381.381,0,0,0,.047-.187.391.391,0,0,0-.39-.39H3.14L2.774,3ZM7.735,9.235a.779.779,0,1,0,.779.779A.778.778,0,0,0,7.735,9.235Z" transform="translate(5.182 5.383)" fill="#00aa63"/>
    </g>
    <text id="Recommended_Product" data-name="Recommended Product" transform="translate(11531 812)" fill="#5c6561" font-size="16" font-family="Muli-Bold, Muli" font-weight="700"><tspan x="0" y="0">Recommended Product</tspan></text>
    <text id="_800.00" data-name="800.00" transform="translate(11495 1145)" fill="#bcbcbc" font-size="11" font-family="Muli-SemiBold, Muli" font-weight="600"><tspan x="0" y="0">800.00</tspan></text>
    <text id="_20_Jan" data-name="20 Jan" transform="translate(11559 1156)" fill="#bcbcbc" font-size="11" font-family="Muli-SemiBold, Muli" font-weight="600"><tspan x="0" y="0">20 Jan</tspan></text>
    <rect id="Rectangle_77" data-name="Rectangle 77" width="2" height="4" transform="translate(11574 1141)" fill="#bcbcbc"/>
    <text id="_20_Feb" data-name="20 Feb" transform="translate(11625 1156)" fill="#bcbcbc" font-size="11" font-family="Muli-SemiBold, Muli" font-weight="600"><tspan x="0" y="0">20 Feb</tspan></text>
    <rect id="Rectangle_77-2" data-name="Rectangle 77" width="2" height="4" transform="translate(11640 1141)" fill="#bcbcbc"/>
    <text id="_20_Mar" data-name="20 Mar" transform="translate(11692 1156)" fill="#bcbcbc" font-size="11" font-family="Muli-SemiBold, Muli" font-weight="600"><tspan x="0" y="0">20 Mar</tspan></text>
    <rect id="Rectangle_77-3" data-name="Rectangle 77" width="2" height="4" transform="translate(11707 1141)" fill="#bcbcbc"/>
    <text id="_20_April" data-name="20 April" transform="translate(11761 1156)" fill="#bcbcbc" font-size="11" font-family="Muli-SemiBold, Muli" font-weight="600"><tspan x="0" y="0">20 April</tspan></text>
    <rect id="Rectangle_77-4" data-name="Rectangle 77" width="2" height="4" transform="translate(11776 1141)" fill="#bcbcbc"/>
    <text id="_20_May" data-name="20 May" transform="translate(11834 1156)" fill="#bcbcbc" font-size="11" font-family="Muli-SemiBold, Muli" font-weight="600"><tspan x="0" y="0">20 May</tspan></text>
    <rect id="Rectangle_77-5" data-name="Rectangle 77" width="2" height="4" transform="translate(11849 1141)" fill="#bcbcbc"/>
    <text id="_20_June" data-name="20 June" transform="translate(11904 1156)" fill="#bcbcbc" font-size="11" font-family="Muli-SemiBold, Muli" font-weight="600"><tspan x="0" y="0">20 June</tspan></text>
    <rect id="Rectangle_77-6" data-name="Rectangle 77" width="2" height="4" transform="translate(11919 1141)" fill="#bcbcbc"/>
    <text id="_900.00" data-name="900.00" transform="translate(11495 1105)" fill="#bcbcbc" font-size="11" font-family="Muli-SemiBold, Muli" font-weight="600"><tspan x="0" y="0">900.00</tspan></text>
    <text id="_1000.00" data-name="1000.00" transform="translate(11495 1066)" fill="#bcbcbc" font-size="11" font-family="Muli-SemiBold, Muli" font-weight="600"><tspan x="0" y="0">1000.00</tspan></text>
    <text id="_1100.00" data-name="1100.00" transform="translate(11495 1027)" fill="#bcbcbc" font-size="11" font-family="Muli-SemiBold, Muli" font-weight="600"><tspan x="0" y="0">1100.00</tspan></text>
    <text id="_1200.00" data-name="1200.00" transform="translate(11495 988)" fill="#bcbcbc" font-size="11" font-family="Muli-SemiBold, Muli" font-weight="600"><tspan x="0" y="0">1200.00</tspan></text>
    <text id="_1300.00" data-name="1300.00" transform="translate(11495 949)" fill="#bcbcbc" font-size="11" font-family="Muli-SemiBold, Muli" font-weight="600"><tspan x="0" y="0">1300.00</tspan></text>
    <text id="Tooltip_review_meta_safe" transform="translate(11531 861)" fill="#5c6561" font-size="14" font-family="Muli-Regular, Muli"><tspan x="0" y="0">Tooltip_review_meta_safe</tspan></text>
    <g id="Group_125" data-name="Group 125" transform="translate(-326 346)">
      <g id="Group_123" data-name="Group 123" transform="translate(12171 452)">
        <g id="download" transform="translate(106.667)">
          <g id="Group_121" data-name="Group 121">
            <rect id="Rectangle_70" data-name="Rectangle 70" width="16" height="16" transform="translate(0.333)" fill="none"/>
          </g>
          <g id="Group_122" data-name="Group 122" transform="translate(3.333 2)">
            <path id="Path_111" data-name="Path 111" d="M12.727,7h-1.06V3.667A.669.669,0,0,0,11,3H8.333a.669.669,0,0,0-.667.667V7H6.607a.669.669,0,0,0-.473,1.14l3.06,3.06a.664.664,0,0,0,.94,0l3.06-3.06A.667.667,0,0,0,12.727,7ZM5,13.667a.669.669,0,0,0,.667.667h8a.667.667,0,0,0,0-1.333h-8A.669.669,0,0,0,5,13.667Z" transform="translate(-5 -3)" fill="#bcbcbc"/>
          </g>
        </g>
        <g id="home" transform="translate(83)">
          <path id="Path_112" data-name="Path 112" d="M0,0H16V16H0Z" fill="none"/>
          <path id="Path_113" data-name="Path 113" d="M7.6,13.782V10.448h2.667v3.333a.669.669,0,0,0,.667.667h2a.669.669,0,0,0,.667-.667V9.115h1.133a.331.331,0,0,0,.22-.58L9.381,3.515a.672.672,0,0,0-.893,0L2.914,8.535a.332.332,0,0,0,.22.58H4.267v4.667a.669.669,0,0,0,.667.667h2A.669.669,0,0,0,7.6,13.782Z" transform="translate(-0.934 -1.115)" fill="#bcbcbc"/>
        </g>
        <g id="hand" transform="translate(59)">
          <path id="Path_114" data-name="Path 114" d="M0,0H16V16H0Z" fill="none"/>
          <path id="Path_115" data-name="Path 115" d="M11.569,2a.749.749,0,0,0-.75.75v2.5a.25.25,0,0,1-.5,0v-4a.75.75,0,1,0-1.5,0v4a.25.25,0,0,1-.5,0V.75a.75.75,0,1,0-1.5,0V5.245a.25.25,0,0,1-.5,0V2.25a.75.75,0,1,0-1.5,0V7.955L2.759,6.78a.749.749,0,0,0-.905,1.175L5.244,11.4a1.981,1.981,0,0,0,1.425.6h3.65a2,2,0,0,0,2-2V2.75A.749.749,0,0,0,11.569,2Z" transform="translate(1.021 2)" fill="#bcbcbc"/>
        </g>
        <g id="zoom" transform="translate(35)">
          <path id="Path_116" data-name="Path 116" d="M0,0H16V16H0Z" fill="none"/>
          <path id="Path_117" data-name="Path 117" d="M11.334,10.333h-.527l-.187-.18a4.346,4.346,0,1,0-.467.467l.18.187v.527l2.84,2.833a.7.7,0,0,0,.987,0l.007-.007a.7.7,0,0,0,0-.987Zm-4,0a3,3,0,1,1,3-3A3,3,0,0,1,7.334,10.333Zm0-4.667A.33.33,0,0,0,7,6V7H6a.333.333,0,0,0,0,.667H7v1a.333.333,0,0,0,.667,0v-1h1a.333.333,0,0,0,0-.667h-1V6A.33.33,0,0,0,7.334,5.666Z" transform="translate(-1 -1)" fill="#bcbcbc"/>
        </g>
        <g id="add" transform="translate(-13)">
          <path id="Path_118" data-name="Path 118" d="M0,0H16V16H0Z" fill="none"/>
          <path id="Path_119" data-name="Path 119" d="M7.665,2A5.665,5.665,0,1,0,13.33,7.665,5.667,5.667,0,0,0,7.665,2ZM9.931,8.231h-1.7v1.7a.566.566,0,1,1-1.133,0v-1.7H5.4A.566.566,0,1,1,5.4,7.1H7.1V5.4a.566.566,0,1,1,1.133,0V7.1h1.7a.566.566,0,1,1,0,1.133Z" transform="translate(0.335 0.335)" fill="#bcbcbc"/>
        </g>
        <g id="minus" transform="translate(11)">
          <path id="Path_120" data-name="Path 120" d="M0,0H16V16H0Z" fill="none"/>
          <path id="Path_121" data-name="Path 121" d="M7.665,2A5.665,5.665,0,1,0,13.33,7.665,5.667,5.667,0,0,0,7.665,2ZM9.931,8.231H5.4A.566.566,0,1,1,5.4,7.1H9.931a.566.566,0,1,1,0,1.133Z" transform="translate(0.334 0.335)" fill="#bcbcbc"/>
        </g>
      </g>
    </g>
    <rect id="Rectangle_71" data-name="Rectangle 71" width="409" height="1" transform="translate(11968 946) rotate(180)" fill="#e1e1e1"/>
    <rect id="Rectangle_78" data-name="Rectangle 78" width="473" height="1" transform="translate(11968 827) rotate(180)" fill="#e1e1e1"/>
    <rect id="Rectangle_72" data-name="Rectangle 72" width="409" height="1" transform="translate(11968 985) rotate(180)" fill="#e1e1e1"/>
    <rect id="Rectangle_73" data-name="Rectangle 73" width="409" height="1" transform="translate(11968 1024) rotate(180)" fill="#e1e1e1"/>
    <rect id="Rectangle_74" data-name="Rectangle 74" width="409" height="1" transform="translate(11968 1063) rotate(180)" fill="#e1e1e1"/>
    <rect id="Rectangle_75" data-name="Rectangle 75" width="409" height="1" transform="translate(11968 1102) rotate(180)" fill="#e1e1e1"/>
    <rect id="Rectangle_76" data-name="Rectangle 76" width="409" height="1" transform="translate(11968 1141) rotate(180)" fill="#e1e1e1"/>
    <path id="Path_122" data-name="Path 122" d="M11566.4,987.215l5.626,8.252,6.751-30.382v27.756l13.128-27.756,7.127,25.13,15.378-67.14,3,67.14,6-67.14v64.139l5.627-34.132,15,63.764v-45.76l12.378,31.132,9.674,51.464,7.955-54.464,15-61.138,7.5,64.139,10.5-46.885,16.879,34.883,9-17.254,4.126,17.254,5.626-17.254,3.751,19.879,9.377-19.879,6.376,19.879,4.126-19.879,2.251,17.254,9-14.628,3,11.628,8.627-18.379,9.752,27.381s9.378-19.129,9.378-18,5.251,14.628,5.251,14.628l18.379-72.016,4.876,121.9,12.753-49.886v32.632l7.877-23.63,6,84.018,6.751-49.136,2.251,42.009,6-29.631,3,29.631,10.127-36.008v33.382l15-109.9,6,104.273,5.626-38.258,2.251,38.258,6.376-63.389,6.376,29.631,9.378-29.631v20.629l9.377-20.629,7.5,22.88" transform="translate(0 29)" fill="none" stroke="#00dd80" stroke-linecap="round" stroke-linejoin="round" stroke-width="2"/>
    <text id="Tooltip_product_feedback_safe_rated" transform="translate(11531 887)" fill="#5c6561" font-size="14" font-family="Muli-Regular, Muli"><tspan x="0" y="0">Tooltip_product_feedback_safe_rated</tspan></text>
    <text id="Tooltip_product_pricing_no_price_available" transform="translate(11531 913)" fill="#5c6561" font-size="14" font-family="Muli-Regular, Muli"><tspan x="0" y="0">Tooltip_product_pricing_no_price_available</tspan></text>
    <g id="check" transform="translate(11495 848)">
      <rect id="Rectangle_79" data-name="Rectangle 79" width="16" height="16" transform="translate(0)" fill="none"/>
      <path id="Path_123" data-name="Path 123" d="M14.861,4.595,8.194,11.261a.664.664,0,0,1-.94,0L5.367,9.375a.664.664,0,0,1,0-.94h0a.664.664,0,0,1,.94,0L7.721,9.848l6.193-6.193a.664.664,0,0,1,.94,0h0A.658.658,0,0,1,14.861,4.595Zm-3.68-2.1A6.665,6.665,0,1,0,15.108,10.4a6.448,6.448,0,0,0,.14-2.813.671.671,0,0,0-1.133-.36h0a.671.671,0,0,0-.18.593,5.013,5.013,0,0,1-.347,2.84,5.419,5.419,0,0,1-4.407,3.313A5.335,5.335,0,1,1,11.1,3.921a.668.668,0,0,0,.78-.12h0a.669.669,0,0,0-.16-1.067C11.541,2.655,11.361,2.568,11.181,2.495Z" transform="translate(-0.667 -0.668)" fill="#00dd80"/>
    </g>
    <g id="check-2" data-name="check" transform="translate(11495 874)">
      <rect id="Rectangle_79-2" data-name="Rectangle 79" width="16" height="16" transform="translate(0)" fill="none"/>
      <path id="Path_123-2" data-name="Path 123" d="M14.861,4.595,8.194,11.261a.664.664,0,0,1-.94,0L5.367,9.375a.664.664,0,0,1,0-.94h0a.664.664,0,0,1,.94,0L7.721,9.848l6.193-6.193a.664.664,0,0,1,.94,0h0A.658.658,0,0,1,14.861,4.595Zm-3.68-2.1A6.665,6.665,0,1,0,15.108,10.4a6.448,6.448,0,0,0,.14-2.813.671.671,0,0,0-1.133-.36h0a.671.671,0,0,0-.18.593,5.013,5.013,0,0,1-.347,2.84,5.419,5.419,0,0,1-4.407,3.313A5.335,5.335,0,1,1,11.1,3.921a.668.668,0,0,0,.78-.12h0a.669.669,0,0,0-.16-1.067C11.541,2.655,11.361,2.568,11.181,2.495Z" transform="translate(-0.667 -0.668)" fill="#00dd80"/>
    </g>
    <g id="not" transform="translate(11495 900)">
      <path id="Path_124" data-name="Path 124" d="M0,0H16V16H0Z" fill="none"/>
      <path id="Path_125" data-name="Path 125" d="M9.927,6.467l-1.26,1.26-1.26-1.26a.665.665,0,1,0-.94.94l1.26,1.26-1.26,1.26a.665.665,0,0,0,.94.94l1.26-1.26,1.26,1.26a.665.665,0,0,0,.94-.94l-1.26-1.26,1.26-1.26a.664.664,0,0,0,0-.94A.676.676,0,0,0,9.927,6.467ZM8.667,2a6.667,6.667,0,1,0,6.667,6.667A6.661,6.661,0,0,0,8.667,2Zm0,12A5.333,5.333,0,1,1,14,8.667,5.34,5.34,0,0,1,8.667,14Z" transform="translate(-0.667 -0.667)" fill="#f37171"/>
    </g>
    <g id="info" transform="translate(11707 848)">
      <path id="Path_128" data-name="Path 128" d="M0,0H16V16H0Z" fill="none"/>
      <path id="Path_129" data-name="Path 129" d="M8.667,2a6.667,6.667,0,1,0,6.667,6.667A6.669,6.669,0,0,0,8.667,2Zm0,12A5.333,5.333,0,1,1,14,8.667,5.34,5.34,0,0,1,8.667,14ZM8,11.333H9.333v1.333H8Zm1.073-6.64A2.668,2.668,0,0,0,6.12,6.553a.6.6,0,0,0,.58.78h.133a.642.642,0,0,0,.587-.447,1.335,1.335,0,0,1,1.533-.853A1.349,1.349,0,0,1,10,7.433c-.067.893-1.08,1.087-1.633,1.92,0,.007-.007.007-.007.013s-.013.02-.02.033a2.221,2.221,0,0,0-.167.333c-.007.02-.02.033-.027.053a.425.425,0,0,0-.013.047A2.478,2.478,0,0,0,8,10.667H9.333a1.416,1.416,0,0,1,.187-.713c.013-.02.02-.04.033-.06a1.839,1.839,0,0,1,.187-.26c.007-.007.013-.02.02-.027a2.343,2.343,0,0,1,.22-.227c.64-.607,1.507-1.1,1.327-2.373A2.717,2.717,0,0,0,9.073,4.693Z" transform="translate(-0.667 -0.667)" fill="#bcbcbc"/>
    </g>
    <g id="info-2" data-name="info" transform="translate(11781 874)">
      <path id="Path_128-2" data-name="Path 128" d="M0,0H16V16H0Z" fill="none"/>
      <path id="Path_129-2" data-name="Path 129" d="M8.667,2a6.667,6.667,0,1,0,6.667,6.667A6.669,6.669,0,0,0,8.667,2Zm0,12A5.333,5.333,0,1,1,14,8.667,5.34,5.34,0,0,1,8.667,14ZM8,11.333H9.333v1.333H8Zm1.073-6.64A2.668,2.668,0,0,0,6.12,6.553a.6.6,0,0,0,.58.78h.133a.642.642,0,0,0,.587-.447,1.335,1.335,0,0,1,1.533-.853A1.349,1.349,0,0,1,10,7.433c-.067.893-1.08,1.087-1.633,1.92,0,.007-.007.007-.007.013s-.013.02-.02.033a2.221,2.221,0,0,0-.167.333c-.007.02-.02.033-.027.053a.425.425,0,0,0-.013.047A2.478,2.478,0,0,0,8,10.667H9.333a1.416,1.416,0,0,1,.187-.713c.013-.02.02-.04.033-.06a1.839,1.839,0,0,1,.187-.26c.007-.007.013-.02.02-.027a2.343,2.343,0,0,1,.22-.227c.64-.607,1.507-1.1,1.327-2.373A2.717,2.717,0,0,0,9.073,4.693Z" transform="translate(-0.667 -0.667)" fill="#bcbcbc"/>
    </g>
    <g id="info-3" data-name="info" transform="translate(11817 900)">
      <path id="Path_128-3" data-name="Path 128" d="M0,0H16V16H0Z" fill="none"/>
      <path id="Path_129-3" data-name="Path 129" d="M8.667,2a6.667,6.667,0,1,0,6.667,6.667A6.669,6.669,0,0,0,8.667,2Zm0,12A5.333,5.333,0,1,1,14,8.667,5.34,5.34,0,0,1,8.667,14ZM8,11.333H9.333v1.333H8Zm1.073-6.64A2.668,2.668,0,0,0,6.12,6.553a.6.6,0,0,0,.58.78h.133a.642.642,0,0,0,.587-.447,1.335,1.335,0,0,1,1.533-.853A1.349,1.349,0,0,1,10,7.433c-.067.893-1.08,1.087-1.633,1.92,0,.007-.007.007-.007.013s-.013.02-.02.033a2.221,2.221,0,0,0-.167.333c-.007.02-.02.033-.027.053a.425.425,0,0,0-.013.047A2.478,2.478,0,0,0,8,10.667H9.333a1.416,1.416,0,0,1,.187-.713c.013-.02.02-.04.033-.06a1.839,1.839,0,0,1,.187-.26c.007-.007.013-.02.02-.027a2.343,2.343,0,0,1,.22-.227c.64-.607,1.507-1.1,1.327-2.373A2.717,2.717,0,0,0,9.073,4.693Z" transform="translate(-0.667 -0.667)" fill="#bcbcbc"/>
    </g>
  </g>
</svg>
