<svg id="shopping-cart" xmlns="http://www.w3.org/2000/svg" width="64" height="62.287" viewBox="0 0 64 62.287">
  <g id="Group_58" data-name="Group 58" transform="translate(0 0)">
    <g id="Group_57" data-name="Group 57">
      <path id="Path_29" data-name="Path 29" d="M103.334,350.322A6.681,6.681,0,1,0,110.016,357,6.681,6.681,0,0,0,103.334,350.322Zm0,10.394A3.712,3.712,0,1,1,107.046,357,3.712,3.712,0,0,1,103.334,360.716Z" transform="translate(-82.919 -301.398)" fill="#abaeb4"/>
      <path id="Path_30" data-name="Path 30" d="M301.865,350.322A6.681,6.681,0,1,0,308.547,357,6.681,6.681,0,0,0,301.865,350.322Zm0,10.394A3.712,3.712,0,1,1,305.577,357,3.712,3.712,0,0,1,301.865,360.716Z" transform="translate(-253.239 -301.398)" fill="#abaeb4"/>
      <path id="Path_31" data-name="Path 31" d="M63.7,15.976a1.856,1.856,0,0,0-1.188-.594l-48.33-.668-1.336-4.083a6.83,6.83,0,0,0-6.385-4.6H1.485a1.485,1.485,0,1,0,0,2.97H6.459a3.861,3.861,0,0,1,3.564,2.6L19.451,40.03l-.742,1.707a7.127,7.127,0,0,0,.668,6.459,6.9,6.9,0,0,0,5.568,3.118H53.824a1.485,1.485,0,0,0,0-2.97H24.944a3.786,3.786,0,0,1-3.118-1.782A4.083,4.083,0,0,1,21.455,43l.594-1.336L53.3,38.4a8.166,8.166,0,0,0,7.053-6.236L63.92,17.238A1.262,1.262,0,0,0,63.7,15.976ZM57.461,31.492a5.048,5.048,0,0,1-4.529,3.935L22.049,38.619l-6.9-20.935,45.509.668Z" transform="translate(0 -6.028)" fill="#abaeb4"/>
    </g>
  </g>
</svg>
