<svg id="shopping-bag" xmlns="http://www.w3.org/2000/svg" width="64" height="75.519" viewBox="0 0 64 75.519">
  <g id="Group_40" data-name="Group 40" transform="translate(22.963)">
    <g id="Group_39" data-name="Group 39">
      <path id="Path_20" data-name="Path 20" d="M96.4,9.332A10.881,10.881,0,0,0,76.84,4.468a1.28,1.28,0,1,0,2.066,1.51,8.322,8.322,0,0,1,14.96,3.715,1.281,1.281,0,0,0,1.266,1.1,1.371,1.371,0,0,0,.182-.013A1.28,1.28,0,0,0,96.4,9.332Z" transform="translate(-76.593)" fill="#abaeb4"/>
    </g>
  </g>
  <g id="Group_42" data-name="Group 42" transform="translate(2.56 16.639)">
    <g id="Group_41" data-name="Group 41">
      <path id="Path_21" data-name="Path 21" d="M80.882,51.393l-3.84-6.4a1.278,1.278,0,0,0-1.1-.621h-3.68a1.28,1.28,0,1,0,0,2.56H75.22l2.3,3.84h-51.8l2.3-3.84h1.356a1.28,1.28,0,1,0,0-2.56H27.3a1.278,1.278,0,0,0-1.1.621l-3.84,6.4a1.28,1.28,0,0,0,1.1,1.939H79.784a1.28,1.28,0,0,0,1.1-1.939Z" transform="translate(-22.185 -44.372)" fill="#abaeb4"/>
    </g>
  </g>
  <g id="Group_44" data-name="Group 44" transform="translate(33.744 7.172)">
    <g id="Group_43" data-name="Group 43">
      <path id="Path_22" data-name="Path 22" d="M126.476,23.812a1.278,1.278,0,0,0-.8-.571L108.231,19.16a1.279,1.279,0,0,0-1.538.955l-1.316,5.625a1.28,1.28,0,0,0,2.493.582l1.024-4.378,14.956,3.5L121.5,35.49a1.279,1.279,0,0,0,.955,1.537,1.3,1.3,0,0,0,.293.034,1.278,1.278,0,0,0,1.244-.988l2.642-11.294A1.275,1.275,0,0,0,126.476,23.812Z" transform="translate(-105.343 -19.126)" fill="#abaeb4"/>
    </g>
  </g>
  <g id="Group_46" data-name="Group 46" transform="translate(7.551 3.89)">
    <g id="Group_45" data-name="Group 45">
      <path id="Path_23" data-name="Path 23" d="M60.62,21.368,59.454,11.5a1.281,1.281,0,0,0-1.422-1.121l-21.408,2.53a1.28,1.28,0,0,0-1.12,1.422l1.944,16.452a1.28,1.28,0,0,0,1.27,1.13,1.4,1.4,0,0,0,.152-.009,1.281,1.281,0,0,0,1.12-1.422L38.2,15.3l18.866-2.23,1.015,8.593a1.28,1.28,0,0,0,2.542-.3Z" transform="translate(-35.494 -10.374)" fill="#abaeb4"/>
    </g>
  </g>
  <g id="Group_48" data-name="Group 48" transform="translate(17.114 12.288)">
    <g id="Group_47" data-name="Group 47">
      <path id="Path_24" data-name="Path 24" d="M86.682,44.314,84.141,33.749A1.279,1.279,0,0,0,82.6,32.8l-20.62,4.959a1.28,1.28,0,0,0-.945,1.544l1.27,5.281a1.28,1.28,0,1,0,2.489-.6l-.971-4.036,18.131-4.36,2.241,9.32a1.28,1.28,0,0,0,2.49-.6Z" transform="translate(-60.997 -32.769)" fill="#abaeb4"/>
    </g>
  </g>
  <g id="Group_50" data-name="Group 50" transform="translate(0 23.04)">
    <g id="Group_49" data-name="Group 49">
      <path id="Path_25" data-name="Path 25" d="M76.8,62.655a1.28,1.28,0,0,0-1.279-1.214H19.2a1.28,1.28,0,0,0-1.279,1.214l-2.56,49.919a1.28,1.28,0,0,0,1.278,1.345H78.077a1.28,1.28,0,0,0,1.279-1.345Zm-58.811,48.7L20.414,64H74.3L76.73,111.36Z" transform="translate(-15.359 -61.441)" fill="#abaeb4"/>
    </g>
  </g>
  <g id="Group_52" data-name="Group 52" transform="translate(37.759 28.159)">
    <g id="Group_51" data-name="Group 51">
      <path id="Path_26" data-name="Path 26" d="M119.892,75.093a3.84,3.84,0,1,0,3.84,3.84A3.844,3.844,0,0,0,119.892,75.093Zm0,5.12a1.28,1.28,0,1,1,1.28-1.28A1.281,1.281,0,0,1,119.892,80.213Z" transform="translate(-116.052 -75.093)" fill="#abaeb4"/>
    </g>
  </g>
  <g id="Group_54" data-name="Group 54" transform="translate(18.56 28.159)">
    <g id="Group_53" data-name="Group 53">
      <path id="Path_27" data-name="Path 27" d="M68.692,75.093a3.84,3.84,0,1,0,3.84,3.84A3.844,3.844,0,0,0,68.692,75.093Zm0,5.12a1.28,1.28,0,1,1,1.28-1.28A1.281,1.281,0,0,1,68.692,80.213Z" transform="translate(-64.852 -75.093)" fill="#abaeb4"/>
    </g>
  </g>
  <g id="Group_56" data-name="Group 56" transform="translate(21.12 31.999)">
    <g id="Group_55" data-name="Group 55">
      <path id="Path_28" data-name="Path 28" d="M92.159,85.333h-.1a1.28,1.28,0,0,0-1.28,1.28,1.266,1.266,0,0,0,.1.493v6.546a8.32,8.32,0,1,1-16.64,0V86.613a1.28,1.28,0,1,0-2.56,0v7.04a10.88,10.88,0,0,0,21.759,0v-7.04A1.281,1.281,0,0,0,92.159,85.333Z" transform="translate(-71.679 -85.333)" fill="#abaeb4"/>
    </g>
  </g>
</svg>
