<svg xmlns="http://www.w3.org/2000/svg" width="64" height="64" viewBox="0 0 64 64">
  <path id="XMLID_1518_" d="M63.117,34.8,50.5,30.923V14.251A1.25,1.25,0,0,0,49.25,13H39.215A14.017,14.017,0,0,0,25.168,0,14.094,14.094,0,0,0,11.3,13H1.25A1.25,1.25,0,0,0,0,14.251V33.386a1.25,1.25,0,0,0,2.5,0V15.5h8.75v4.146a4,4,0,1,0,8,0V15.5h12v4.146a4,4,0,1,0,8,0V15.5H48v15.73L36.383,34.8A1.25,1.25,0,0,0,35.5,36v9.937A18.635,18.635,0,0,0,43.9,61.5H6.25a3.754,3.754,0,0,1-3.75-3.75V44.636a1.25,1.25,0,0,0-2.5,0V57.751A6.257,6.257,0,0,0,6.25,64h38a6.212,6.212,0,0,0,2.989-.76,18.706,18.706,0,0,0,2.2.72,1.249,1.249,0,0,0,.63,0A18.633,18.633,0,0,0,64,45.932V36A1.25,1.25,0,0,0,63.117,34.8ZM19.334,13a6.01,6.01,0,0,1,6.009-5,6.061,6.061,0,0,1,5.8,5H19.334ZM36.75,19.646a1.5,1.5,0,0,1-3,0V14.111A8.592,8.592,0,0,0,25.382,5.5h-.133a8.508,8.508,0,0,0-8.5,8.5v5.646a1.5,1.5,0,1,1-3,0V14.141A11.6,11.6,0,0,1,25.183,2.5,11.514,11.514,0,0,1,36.75,14ZM61.5,45.932A16.133,16.133,0,0,1,49.75,61.456,16.133,16.133,0,0,1,38,45.932V36.919l11.75-3.61,11.75,3.61Z" transform="translate(0 -0.001)" fill="#abaeb4"/>
</svg>
