<svg xmlns="http://www.w3.org/2000/svg" width="140.017" height="32" viewBox="0 0 140.017 32">
  <g id="Group_38" data-name="Group 38" transform="translate(-5397.983 112)">
    <text id="Safe-Deal" transform="translate(5433 -87)" fill="#00dd80" font-size="24" font-family="Roboto-Medium, Roboto" font-weight="500"><tspan x="0" y="0">Safe-Deal</tspan></text>
    <g id="surface1" transform="translate(5397.483 -112)">
      <path id="Path_40" data-name="Path 40" d="M26.074,21.37a16.162,16.162,0,0,1-3.831,6.024,20.018,20.018,0,0,1-7.487,4.477,2.337,2.337,0,0,1-.309.085,2.312,2.312,0,0,1-.419.044H14a2.3,2.3,0,0,1-.447-.044,2.4,2.4,0,0,1-.307-.084,20.016,20.016,0,0,1-7.5-4.475,16.131,16.131,0,0,1-3.83-6.023C.373,17.136.461,12.467.532,8.715V8.657c.014-.31.023-.635.029-.995A3.378,3.378,0,0,1,3.726,4.34,12.981,12.981,0,0,0,12.6.564l.021-.02a2.017,2.017,0,0,1,2.757,0l.021.02A12.983,12.983,0,0,0,24.275,4.34a3.378,3.378,0,0,1,3.164,3.323c.005.362.014.687.029.995v.024C27.539,12.441,27.627,17.119,26.074,21.37Zm0,0" transform="translate(0 0)" fill="#00dd80"/>
      <path id="Path_41" data-name="Path 41" d="M231.107,21.373A16.145,16.145,0,0,1,227.24,27.4a20.24,20.24,0,0,1-7.557,4.477,2.312,2.312,0,0,1-.734.13V0a2.053,2.053,0,0,1,1.364.544l.021.02a13.163,13.163,0,0,0,8.958,3.776,3.392,3.392,0,0,1,3.194,3.323c.005.362.014.687.029.995v.024C232.586,12.444,232.674,17.122,231.107,21.373Zm0,0" transform="translate(-205.046 -0.003)" fill="#00aa63"/>
      <path id="Path_42" data-name="Path 42" d="M106.594,136.373a7.924,7.924,0,0,1-7.822,7.975h-.028a7.976,7.976,0,0,1,0-15.95h.028A7.924,7.924,0,0,1,106.594,136.373Zm0,0" transform="translate(-84.745 -120.373)" fill="#fff"/>
      <path id="Path_43" data-name="Path 43" d="M226.9,136.373a7.985,7.985,0,0,1-7.947,7.975V128.4A7.985,7.985,0,0,1,226.9,136.373Zm0,0" transform="translate(-204.973 -120.373)" fill="#e1ebf0"/>
      <path id="Icon_material-shopping-cart" data-name="Icon material-shopping-cart" d="M4.617,11.313a1.039,1.039,0,1,0,1.039,1.039A1.038,1.038,0,0,0,4.617,11.313ZM1.5,3V4.039H2.539l1.87,3.943-.7,1.273a1,1,0,0,0-.13.5,1.042,1.042,0,0,0,1.039,1.039h6.235V9.754H4.835a.129.129,0,0,1-.13-.13l.016-.062.468-.847H9.059a1.034,1.034,0,0,0,.909-.535l1.86-3.372a.508.508,0,0,0,.062-.249.521.521,0,0,0-.52-.52H3.687L3.2,3Zm8.313,8.313a1.039,1.039,0,1,0,1.039,1.039A1.038,1.038,0,0,0,9.813,11.313Z" transform="translate(7.243 8.177)" fill="#00aa63"/>
      <path id="Icon_material-shopping-cart-2" data-name="Icon material-shopping-cart" d="M4.617,11.313a1.039,1.039,0,1,0,1.039,1.039A1.038,1.038,0,0,0,4.617,11.313ZM1.5,3V4.039H2.539l1.87,3.943-.7,1.273a1,1,0,0,0-.13.5,1.042,1.042,0,0,0,1.039,1.039h6.235V9.754H4.835a.129.129,0,0,1-.13-.13l.016-.062.468-.847H9.059a1.034,1.034,0,0,0,.909-.535l1.86-3.372a.508.508,0,0,0,.062-.249.521.521,0,0,0-.52-.52H3.687L3.2,3Zm8.313,8.313a1.039,1.039,0,1,0,1.039,1.039A1.038,1.038,0,0,0,9.813,11.313Z" transform="translate(7.243 8.177)" fill="#00aa63"/>
    </g>
  </g>
</svg>
